<svg id="visual" viewBox="0 0 900 600" width="900" height="600" xmlns="http://www.w3.org/2000/svg" xmlns:xlink="http://www.w3.org/1999/xlink" version="1.1"><rect x="0" y="0" width="900" height="600" fill="#001733"></rect><path d="M311 600L305 600L305 514L495 514L495 429L348 429L348 343L447 343L447 257L391 257L391 171L348 171L348 86L349 86L349 0L900 0L900 86L900 86L900 171L900 171L900 257L900 257L900 343L900 343L900 429L900 429L900 514L900 514L900 600L900 600Z" fill="#002347"></path><path d="M640 600L511 600L511 514L567 514L567 429L546 429L546 343L528 343L528 257L647 257L647 171L532 171L532 86L554 86L554 0L900 0L900 86L900 86L900 171L900 171L900 257L900 257L900 343L900 343L900 429L900 429L900 514L900 514L900 600L900 600Z" fill="#022d60"></path><path d="M761 600L669 600L669 514L738 514L738 429L796 429L796 343L661 343L661 257L801 257L801 171L774 171L774 86L728 86L728 0L900 0L900 86L900 86L900 171L900 171L900 257L900 257L900 343L900 343L900 429L900 429L900 514L900 514L900 600L900 600Z" fill="#1f4f91"></path></svg>