<?xml version="1.0" encoding="UTF-8"?>
<svg id="Layer_2" data-name="Layer 2" xmlns="http://www.w3.org/2000/svg" viewBox="0 0 1402.47 177.55">
  <defs>
    <style>
      .cls-1 {
        fill: #fff;
      }

      .cls-2 {
        fill: #fec402;
      }
    </style>
  </defs>
  <g id="Layer_1-2" data-name="Layer 1">
    <g>
      <path class="cls-1" d="m0,174.01V8.51h132.87c29.16,0,52.05,5.16,68.68,15.49,16.63,10.33,24.94,25.57,24.94,45.75s-8.32,35.43-24.94,45.75c-16.63,10.33-39.52,15.49-68.68,15.49h-57.92v43.03H0Zm74.95-91.73h56.74c12.92,0,19.39-3.55,19.39-10.64s-6.46-10.4-19.39-10.4h-56.74v21.04Z"/>
      <path class="cls-1" d="m250.37,6.62c6.93-4.41,16-6.62,27.19-6.62s20.25,2.21,27.19,6.62c6.93,4.41,10.4,10.33,10.4,17.73s-3.47,13.32-10.4,17.73c-6.94,4.41-16,6.62-27.19,6.62s-20.29-2.21-27.31-6.62c-7.02-4.41-10.52-10.32-10.52-17.73s3.55-13.32,10.64-17.73Zm61.23,49.18v118.21h-68.33V55.8h68.33Z"/>
      <path class="cls-1" d="m355.35,69.04c16.39-11.19,38.85-16.79,67.38-16.79,15.44,0,36.88,1.89,64.31,5.67l-4.26,40.43c-15.76-4.26-31.05-6.38-45.87-6.38-27.27,0-40.9,7.25-40.9,21.75,0,7.25,3.74,12.85,11.23,16.79,7.48,3.94,18.09,5.91,31.8,5.91,19.86,0,37.43-3.31,52.72-9.93v42.79c-23.49,5.52-46.74,8.27-69.75,8.27-27.43,0-49.53-5.59-66.32-16.79-16.79-11.19-25.18-26.63-25.18-46.34s8.27-34.2,24.82-45.39Z"/>
      <path class="cls-1" d="m575.93,1.42v100.24l42.79-45.87h72.11l-52.96,54.85,62.65,63.36h-75.18l-49.41-51.78v51.78h-68.33V1.42h68.33Z"/>
      <path class="cls-2" d="m842.38,8.51h85.35l91.26,165.5h-75.18l-15.13-27.66h-87.24l-15.37,27.66h-74.95L842.38,8.51Zm65.02,99.3l-22.46-40.43-22.22,40.43h44.68Z"/>
      <path class="cls-2" d="m1036.01,69.04c13.08-11.19,30.81-16.79,53.2-16.79,23.96,0,42.48,6.31,55.56,18.91V1.42h68.56v172.59h-62.65c-2.52-3.46-4.34-8.83-5.44-16.08-13.4,13.08-32.08,19.62-56.03,19.62-22.38,0-40.16-5.59-53.31-16.79-13.16-11.19-19.74-26.48-19.74-45.87s6.62-34.67,19.86-45.87Zm44.69,45.87c0,6.78,2.96,12.18,8.87,16.19,5.91,4.02,13.36,6.03,22.34,6.03,7.88,0,14.69-1.57,20.45-4.73,5.75-3.15,9.89-7.33,12.41-12.53v-10.17c-2.36-5.2-6.46-9.38-12.29-12.53-5.83-3.15-12.69-4.73-20.57-4.73-8.98,0-16.43,2.01-22.34,6.03-5.91,4.02-8.87,9.5-8.87,16.43Z"/>
      <path class="cls-2" d="m1233.9,127.2c24.11,11.51,50.99,17.26,80.62,17.26,17.18,0,25.77-1.57,25.77-4.73,0-.95-.79-1.73-2.36-2.36-1.58-.63-3.98-1.18-7.21-1.65-3.23-.47-6.54-.87-9.93-1.18-3.39-.31-7.73-.75-13-1.3-5.28-.55-9.89-1.06-13.83-1.54-40.19-5.2-60.29-17.57-60.29-37.12,0-12.77,7.64-23.01,22.93-30.74,15.29-7.72,34.91-11.58,58.87-11.58,11.5,0,24.27.83,38.3,2.48,14.03,1.65,24.74,3.27,32.15,4.85v36.17c-7.09-2.68-16.83-5.12-29.2-7.33-12.38-2.21-24-3.31-34.87-3.31-17.81,0-26.72,1.58-26.72,4.73,0,.79.67,1.46,2.01,2.01,1.34.55,3.46,1.03,6.38,1.42,2.92.4,5.83.71,8.75.95,2.92.24,6.89.59,11.94,1.06,5.04.47,9.3.87,12.77,1.18,8.67.95,16.39,2.13,23.17,3.55,6.78,1.42,13.59,3.51,20.45,6.27,6.86,2.76,12.21,6.54,16.08,11.35,3.86,4.81,5.79,10.44,5.79,16.9,0,13.4-7.84,23.92-23.53,31.56-15.68,7.65-35.66,11.47-59.93,11.47-15.6,0-32.31-1.46-50.12-4.37-17.81-2.91-30.19-5.79-37.12-8.63l2.13-37.36Z"/>
    </g>
  </g>
</svg>